<?xml version="1.0" standalone="no"?>
<!DOCTYPE svg PUBLIC "-//W3C//DTD SVG 20010904//EN"
 "http://www.w3.org/TR/2001/REC-SVG-20010904/DTD/svg10.dtd">
<svg version="1.0" xmlns="http://www.w3.org/2000/svg"
 width="1012.000000pt" height="986.000000pt" viewBox="0 0 1012.000000 986.000000"
 preserveAspectRatio="xMidYMid meet">

<g transform="translate(0.000000,986.000000) scale(0.100000,-0.100000)"
fill="#000000" stroke="none">
<path d="M4570 9725 c-529 -47 -988 -163 -1496 -379 -603 -258 -1297 -777
-1690 -1266 -263 -328 -435 -592 -594 -908 -160 -321 -333 -807 -394 -1107 -3
-16 -10 -52 -16 -79 -15 -71 -37 -230 -52 -376 -17 -161 -17 -877 0 -1005 7
-49 17 -128 23 -175 34 -277 132 -637 265 -975 84 -212 80 -202 180 -412 143
-302 255 -471 567 -863 128 -160 490 -521 677 -676 414 -342 665 -490 1175
-696 297 -119 743 -235 1070 -277 44 -6 123 -16 175 -23 135 -17 851 -17 995
0 462 56 806 143 1235 314 418 166 880 445 1236 744 143 120 433 419 532 548
25 33 98 122 162 196 234 273 298 368 429 634 113 227 170 366 265 644 126
369 167 542 220 919 61 434 63 858 5 1243 -109 723 -373 1376 -832 2060 -296
439 -677 821 -1092 1092 -355 232 -662 389 -1045 535 -256 98 -339 122 -660
193 -444 99 -915 132 -1340 95z m1030 -516 c63 -28 133 -101 167 -173 23 -50
28 -75 28 -137 0 -65 -5 -85 -33 -141 -18 -36 -59 -101 -93 -144 -33 -44 -70
-97 -82 -119 -58 -110 12 -266 146 -325 100 -44 236 -55 722 -55 l450 0 0
-445 c-1 -601 -16 -719 -102 -802 -49 -47 -93 -68 -140 -68 -44 0 -71 15 -168
94 -83 67 -190 122 -264 136 -101 19 -239 -30 -324 -115 -88 -87 -132 -225
-109 -345 25 -138 92 -227 215 -286 66 -32 78 -34 167 -34 82 1 108 6 195 36
196 69 209 69 279 -2 86 -86 86 -156 -4 -474 -70 -248 -237 -759 -255 -778
-14 -16 -107 12 -525 158 -514 179 -655 193 -784 79 -90 -78 -96 -146 -30
-338 43 -125 46 -140 41 -207 -10 -132 -76 -229 -196 -286 -278 -133 -586 171
-452 445 12 23 44 71 71 107 123 158 143 204 126 294 -9 49 -87 151 -133 174
-104 53 -333 72 -854 72 -340 0 -347 0 -352 20 -16 60 2 856 23 1010 6 41 17
97 26 124 22 65 86 131 143 146 70 19 110 6 197 -64 44 -35 100 -75 125 -89
209 -122 421 -73 549 125 125 192 43 446 -178 555 -70 35 -83 38 -156 37 -66
-1 -100 -7 -182 -37 -151 -54 -186 -60 -234 -41 -52 21 -105 89 -119 153 -17
81 3 174 124 559 119 380 194 592 211 592 23 0 272 -81 435 -140 297 -109 556
-179 672 -182 49 -1 72 4 112 24 63 33 129 102 145 152 15 48 9 89 -37 223
-48 142 -52 248 -12 333 47 101 125 168 228 197 59 16 161 8 221 -18z m-2952
-5238 c25 -7 27 -11 30 -71 4 -89 4 -90 -60 -73 -32 8 -86 13 -136 11 -78 -3
-86 -5 -108 -31 -50 -58 -34 -75 149 -166 155 -77 184 -108 194 -204 8 -76
-15 -135 -70 -182 -93 -80 -304 -97 -444 -35 l-43 19 0 75 c0 42 2 76 5 76 3
0 22 -8 43 -19 43 -22 127 -41 179 -41 92 0 157 45 132 92 -22 43 -41 57 -140
98 -164 70 -228 146 -217 261 10 98 97 176 224 199 51 9 215 3 262 -9z m718
-12 c81 -31 172 -121 203 -202 28 -77 37 -188 21 -258 -28 -119 -109 -228
-208 -278 -98 -50 -277 -50 -374 0 -56 29 -131 106 -162 167 -48 94 -53 248
-12 361 40 109 147 201 266 228 75 17 193 9 266 -18z m539 -299 l0 -325 153
-3 153 -3 -3 -72 -3 -72 -240 0 -240 0 -3 390 c-1 214 0 396 3 403 3 9 28 12
92 10 l88 -3 0 -325z m990 255 l0 -70 -117 -3 -118 -3 0 -324 0 -324 -42 -6
c-24 -4 -63 -5 -88 -3 l-45 3 -5 325 -5 325 -112 3 -113 3 0 74 0 75 323 -2
322 -3 0 -70z m583 30 c2 -21 1 -54 -3 -72 l-6 -33 -139 0 -140 0 0 -90 0 -90
130 0 130 0 0 -75 0 -75 -129 0 -128 0 -6 -82 c-3 -45 -3 -86 -1 -90 3 -5 73
-8 155 -8 l150 0 -3 -72 -3 -73 -240 0 -240 0 -3 390 c-1 214 0 396 3 403 3
10 56 12 237 10 l233 -3 3 -40z m699 24 c21 -8 23 -15 23 -80 l0 -71 -27 6
c-63 15 -210 18 -249 6 -96 -31 -154 -110 -162 -221 -9 -125 35 -210 132 -255
55 -26 149 -32 216 -15 19 5 47 12 63 15 l27 6 0 -74 c0 -54 -4 -75 -14 -79
-8 -3 -59 -11 -114 -18 -114 -14 -224 -2 -299 31 -65 29 -145 114 -173 185
-20 50 -24 78 -24 170 0 145 21 202 108 290 62 63 122 94 221 115 46 10 238 2
272 -11z m628 -54 l0 -70 -142 -3 -143 -3 0 -89 0 -90 135 0 136 0 -3 -72 -3
-73 -133 -3 -133 -3 3 -87 3 -87 153 -3 152 -3 0 -68 c0 -54 -4 -70 -16 -75
-9 -3 -119 -6 -245 -6 l-229 0 0 405 0 405 233 -2 232 -3 0 -70z m335 -255 l0
-330 155 0 155 0 0 -69 c0 -46 -4 -70 -12 -74 -7 -2 -116 -4 -243 -3 l-230 1
-3 390 c-1 214 0 396 3 402 3 9 31 13 90 13 l85 0 0 -330z m590 0 l0 -330 155
0 156 0 -3 -72 -3 -73 -240 0 -240 0 -3 390 c-1 214 0 396 3 402 3 9 31 13 90
13 l85 0 0 -330z m-5370 -880 c-4 -182 -7 -215 -20 -215 -13 0 -15 32 -18 219
-2 169 1 221 10 227 30 19 34 -16 28 -231z m2126 213 c-9 -27 -45 -65 -57 -58
-11 7 0 30 31 63 24 26 35 24 26 -5z m-1536 -8 c0 -18 -5 -25 -19 -25 -24 0
-33 13 -25 34 10 27 44 20 44 -9z m2178 -3 c3 -18 -1 -22 -22 -22 -19 0 -26 5
-26 18 0 39 43 43 48 4z m2052 -192 l0 -220 -25 0 -25 0 0 174 c0 216 6 266
31 266 18 0 19 -12 19 -220z m378 25 c3 -204 -1 -255 -22 -255 -22 0 -26 35
-26 248 l0 203 23 -3 c22 -3 22 -5 25 -193z m-5614 165 c7 0 21 -7 32 -16 18
-14 15 -15 -32 -10 -69 8 -104 -17 -104 -75 0 -36 4 -42 47 -72 86 -58 103
-80 103 -130 0 -86 -78 -139 -149 -103 -17 9 -31 18 -31 20 0 3 -3 12 -7 22
-6 16 -2 15 29 -4 47 -29 72 -28 97 4 33 42 27 78 -16 111 -96 74 -118 99
-118 142 0 25 8 51 21 68 21 29 79 55 102 47 8 -2 19 -4 26 -4z m2386 -10 c0
-5 -10 -10 -22 -10 -13 0 -33 -3 -45 -6 -23 -6 -23 -8 -23 -194 0 -163 -2
-189 -16 -194 -9 -3 -20 -4 -25 0 -5 3 -9 90 -9 195 l0 189 -22 1 c-13 1 -27
2 -33 4 -5 1 -16 3 -22 3 -7 1 -13 7 -13 12 0 6 45 10 115 10 70 0 115 -4 115
-10z m2498 -2 c22 -22 13 -26 -45 -21 -49 4 -62 2 -86 -17 -45 -36 -61 -77
-61 -160 -1 -89 20 -134 75 -164 33 -18 39 -18 82 -4 26 8 47 12 47 9 0 -21
-31 -40 -75 -45 -71 -9 -111 14 -147 83 -50 96 -35 213 38 288 39 41 43 43
100 43 33 0 65 -5 72 -12z m-4600 -131 c44 -41 54 -135 21 -204 -35 -72 -98
-92 -160 -50 -60 40 -76 139 -36 217 16 33 31 48 55 56 44 14 92 6 120 -19z
m242 -100 c5 -135 10 -147 56 -147 40 0 54 40 54 149 0 108 5 131 26 131 11 0
14 -29 14 -155 0 -85 -4 -155 -9 -155 -5 0 -14 7 -21 15 -16 19 -29 19 -51 -1
-15 -13 -24 -14 -52 -5 -50 17 -67 65 -67 190 0 101 3 114 30 109 12 -3 16
-26 20 -131z m378 117 c6 -2 12 -10 12 -17 0 -11 -12 -13 -48 -9 -44 4 -50 2
-67 -24 -11 -17 -21 -53 -23 -84 -3 -45 0 -61 20 -90 27 -41 56 -48 92 -24 23
14 26 14 26 1 0 -26 -30 -47 -67 -47 -67 0 -135 103 -117 177 26 106 83 145
172 117z m102 -133 c0 -149 -7 -178 -33 -152 -13 13 -16 252 -4 284 3 9 13 17
22 17 13 0 15 -22 15 -149z m244 121 c69 -61 55 -226 -23 -266 -64 -34 -116
-14 -152 56 -16 32 -20 54 -17 94 5 62 45 130 80 137 36 8 91 -3 112 -21z
m528 -4 c66 -98 50 -131 -61 -127 -39 1 -74 0 -77 -4 -11 -11 7 -66 31 -91 28
-30 64 -33 100 -10 27 18 34 4 10 -20 -52 -52 -145 -21 -174 57 -23 61 -2 170
40 203 30 25 112 20 131 -8z m206 15 c2 -9 -7 -13 -27 -13 -17 0 -41 -10 -57
-23 -37 -32 -26 -61 35 -92 27 -13 51 -32 55 -41 10 -25 -4 -80 -23 -98 -40
-36 -121 -24 -130 19 -3 18 -2 18 23 2 38 -25 74 -22 88 8 14 31 -7 66 -50 84
-38 16 -54 47 -50 97 3 33 8 42 38 57 38 19 91 19 98 0z m832 2 c19 -23 3 -35
-31 -22 -29 11 -33 10 -55 -18 -76 -96 -16 -264 78 -214 23 12 31 8 23 -14 -9
-22 -70 -31 -102 -15 -15 7 -38 29 -51 48 -21 30 -23 43 -19 97 7 97 50 152
118 153 15 0 32 -7 39 -15z m211 5 c37 -20 49 -63 49 -178 0 -60 -3 -111 -6
-115 -3 -3 -12 -3 -20 0 -11 4 -14 27 -14 93 0 113 -8 148 -36 166 -19 13 -26
13 -43 2 -20 -12 -44 -72 -40 -101 1 -6 1 -45 0 -84 -1 -65 -3 -73 -20 -73
-17 0 -20 10 -24 93 -3 50 -5 116 -4 145 l1 53 36 -6 c19 -3 47 -2 60 4 33 13
38 13 61 1z m159 -139 c0 -145 -7 -178 -31 -154 -16 16 -21 285 -7 295 35 22
38 11 38 -141z m222 126 c18 -28 10 -32 -26 -16 -74 34 -138 -113 -87 -198 23
-37 52 -49 81 -33 25 13 35 8 27 -14 -18 -47 -119 -17 -150 44 -39 76 -1 209
66 229 36 11 78 5 89 -12z m202 -3 c14 -15 27 -34 27 -43 3 -35 -3 -236 -8
-241 -2 -3 -13 6 -22 19 l-19 24 -27 -21 c-74 -59 -159 53 -90 118 17 16 42
26 73 30 46 5 47 6 50 42 3 30 -1 40 -22 53 -24 16 -27 16 -61 -11 -38 -29
-53 -28 -36 4 11 21 66 51 92 52 9 0 28 -12 43 -26z m224 9 c2 -9 -7 -13 -25
-13 -35 0 -73 -33 -73 -63 1 -16 15 -30 53 -52 41 -24 53 -36 55 -59 8 -71
-55 -123 -114 -94 -32 15 -48 46 -18 33 32 -14 76 -11 87 6 18 29 0 63 -48 89
-50 27 -61 50 -51 105 7 38 15 45 60 56 41 10 69 7 74 -8z m325 4 c36 -16 54
-45 59 -99 4 -34 1 -38 -24 -43 -15 -4 -51 -5 -80 -4 -53 3 -53 3 -56 -28 -2
-21 5 -40 24 -62 28 -33 49 -37 98 -16 14 6 17 4 15 -10 -10 -49 -125 -36
-157 18 -52 85 -24 217 52 247 29 12 32 12 69 -3z m157 1 c15 -10 27 -10 55 1
77 27 108 -32 103 -194 -2 -81 -6 -100 -18 -100 -12 0 -16 22 -20 118 -5 111
-7 120 -30 138 -31 23 -33 23 -61 0 -22 -18 -24 -28 -29 -138 -5 -110 -6 -118
-25 -118 -19 0 -20 7 -21 145 0 80 1 148 3 153 6 10 20 9 43 -5z m764 -2 c38
-16 59 -57 54 -107 l-3 -34 -77 -3 c-75 -3 -78 -4 -78 -27 0 -37 21 -75 50
-90 24 -12 30 -12 59 6 38 23 48 20 29 -10 -27 -43 -112 -38 -152 10 -60 71
-35 230 42 258 37 13 38 13 76 -3z m254 -107 c2 -100 5 -116 24 -136 12 -13
31 -23 44 -23 40 0 49 25 54 154 4 105 7 121 23 124 16 3 17 -9 17 -153 0
-133 -2 -156 -14 -146 -9 7 -33 9 -68 5 -69 -8 -94 5 -108 54 -11 41 -14 225
-3 236 20 20 28 -9 31 -115z m632 99 l20 -22 20 22 c23 24 40 29 40 11 0 -16
-31 -38 -52 -39 -22 0 -27 -21 -30 -147 -2 -56 -7 -105 -10 -109 -4 -3 -14 -4
-23 -1 -22 9 -23 307 0 307 8 0 23 -10 35 -22z m278 -28 c26 -39 30 -95 6
-104 -9 -3 -45 -6 -80 -6 -62 0 -64 -1 -64 -25 0 -72 58 -113 113 -81 38 21
48 12 19 -17 -33 -32 -103 -31 -137 3 -35 36 -49 114 -30 178 31 102 120 130
173 52z m198 35 c18 -13 17 -14 -16 -15 -77 0 -109 -65 -49 -98 51 -28 89 -63
89 -81 0 -58 -39 -101 -93 -101 -25 0 -67 26 -67 41 0 14 26 11 40 -6 19 -22
47 -18 66 10 22 33 15 56 -26 81 -58 37 -80 61 -80 91 0 39 25 71 63 82 45 13
51 13 73 -4z m-4921 -18 c9 -15 14 -62 17 -147 3 -109 1 -125 -13 -128 -14 -3
-17 13 -21 117 -4 130 -13 151 -57 151 -41 0 -51 -17 -52 -94 -1 -115 -11
-170 -31 -174 -17 -3 -18 9 -18 146 l0 150 80 0 c72 0 82 -2 95 -21z m1073
-17 c16 -23 22 -46 20 -70 l-3 -35 -78 -3 c-57 -2 -79 -7 -84 -18 -7 -19 14
-68 38 -90 17 -15 26 -16 62 -7 47 13 55 10 37 -11 -19 -24 -78 -31 -115 -13
-38 18 -75 86 -75 138 0 39 41 134 61 142 8 3 36 5 64 4 44 -2 52 -6 73 -37z
m3218 32 c26 -17 34 -56 34 -162 0 -92 -3 -112 -16 -117 -25 -9 -34 17 -27 74
7 64 -7 74 -64 46 -28 -13 -39 -25 -41 -45 -3 -29 27 -58 63 -58 20 -1 20 -1
1 -15 -27 -20 -40 -19 -71 8 -58 50 -20 135 67 146 38 5 43 9 46 33 7 64 -48
91 -95 46 -30 -28 -32 -2 -3 30 21 22 82 30 106 14z m659 -552 l0 -75 -3302
-3 -3303 -2 0 80 0 80 3303 -2 3302 -3 0 -75z"/>
<path d="M3105 3822 c-76 -48 -110 -124 -108 -244 1 -75 5 -93 29 -138 15 -28
39 -60 53 -69 70 -49 164 -52 232 -6 125 82 127 347 4 441 -32 24 -49 29 -109
32 -56 2 -77 -1 -101 -16z"/>
<path d="M2117 2820 c-52 -41 -60 -139 -17 -200 26 -37 58 -39 97 -6 26 22 28
30 28 94 0 65 -3 73 -29 101 -35 36 -45 38 -79 11z"/>
<path d="M3082 2818 c-45 -49 -54 -116 -22 -178 47 -92 140 -42 140 75 0 52
-12 82 -44 107 -28 24 -48 22 -74 -4z"/>
<path d="M3615 2814 c-15 -16 -25 -39 -25 -57 0 -28 2 -29 31 -23 17 3 44 6
60 6 25 0 29 4 29 29 0 20 -9 36 -26 50 -34 27 -40 26 -69 -5z"/>
<path d="M5472 2695 c-37 -16 -47 -34 -38 -70 9 -34 50 -44 78 -19 26 24 40
61 33 85 -7 22 -28 23 -73 4z"/>
<path d="M6027 2813 c-8 -10 -18 -30 -22 -44 -6 -24 -3 -27 23 -31 17 -2 46
-2 66 0 42 5 47 25 15 66 -24 30 -59 34 -82 9z"/>
<path d="M6947 2812 c-15 -15 -27 -38 -27 -50 0 -20 5 -22 60 -22 43 0 62 4
66 14 6 16 -22 76 -35 76 -5 0 -16 2 -23 5 -8 3 -26 -7 -41 -23z"/>
<path d="M8071 2804 c-11 -15 -21 -35 -21 -45 0 -16 8 -19 55 -19 64 0 78 16
54 59 -21 37 -61 39 -88 5z"/>
<path d="M4419 2811 c-16 -16 -29 -40 -29 -53 0 -22 4 -23 60 -22 33 0 63 4
66 7 11 10 -17 77 -36 87 -26 14 -28 13 -61 -19z"/>
</g>
</svg>
